<svg id="Capa_1" enable-background="new 0 0 512 512" height="512" viewBox="0 0 512 512" width="512" xmlns="http://www.w3.org/2000/svg">
  <g>
    <path d="M256.599,256c0-47.128,38.205-85.333,85.333-85.333c47.128,0,85.333,38.206,85.333,85.333c0,47.129-38.206,85.333-85.333,85.333c-47.129,0-85.333-38.205-85.333-85.333Z" fill="#00bcff"/>
    <path d="M85.932,426.667c0-47.128,38.205-85.333,85.333-85.333l45.475-24.009l39.858,24.009V426.667c0,47.129-38.205,85.333-85.333,85.333c-47.128,0-85.333-38.205-85.333-85.333Z" fill="#00cf7f"/>
    <path d="M256.599,0l-46.434,80.67l46.434,89.996h84.136c47.129,0,85.333-38.205,85.333-85.333c0-47.128-38.205-85.333-85.333-85.333Z" fill="#ff7361"/>
    <path d="M84.734,85.333c0,47.128,38.205,85.333,85.333,85.333l45.267,17.484l41.263-17.484V0h-86.531c-47.127,0-85.332,38.205-85.332,85.333Z" fill="#ff4d12"/>
    <path d="M85.932,256c0,47.129,38.205,85.333,85.333,85.333h85.333V170.667h-85.333c-47.128,0-85.333,38.206-85.333,85.334Z" fill="#b659ff"/>
  </g>
</svg>
